<?xml version="1.0" standalone="no"?>
<!DOCTYPE svg PUBLIC "-//W3C//DTD SVG 20010904//EN"
 "http://www.w3.org/TR/2001/REC-SVG-20010904/DTD/svg10.dtd">
<svg version="1.0" xmlns="http://www.w3.org/2000/svg"
 width="700.000000pt" height="700.000000pt" viewBox="0 0 700.000000 700.000000"
 preserveAspectRatio="xMidYMid meet">
<metadata>
Created by potrace 1.11, written by Peter Selinger 2001-2013
</metadata>
<g transform="translate(0.000000,700.000000) scale(0.100000,-0.100000)"
fill="#000000" stroke="none">
<path d="M0 3500 l0 -3500 3500 0 3500 0 0 3500 0 3500 -3500 0 -3500 0 0
-3500z m1066 3234 c19 -9 44 -31 57 -48 20 -29 22 -43 25 -206 3 -197 -4 -225
-67 -267 -32 -22 -44 -23 -210 -23 -273 0 -281 8 -281 281 0 166 1 178 23 210
40 61 71 69 255 69 131 0 171 -3 198 -16z m1307 2 c18 -7 45 -28 60 -45 l27
-33 0 -184 c0 -206 -6 -229 -63 -264 -29 -18 -51 -20 -210 -20 -197 0 -218 5
-259 62 -22 32 -23 41 -23 213 0 209 7 233 78 266 36 16 66 19 200 19 111 0
167 -4 190 -14z m1344 -12 c55 -41 63 -72 63 -259 0 -190 -7 -215 -72 -255
-30 -18 -51 -20 -208 -20 -196 0 -220 7 -260 72 -19 30 -20 47 -18 215 3 165
5 184 24 210 42 57 71 64 266 61 160 -3 179 -5 205 -24z m1300 7 c71 -33 78
-57 78 -266 0 -172 -1 -181 -23 -213 -41 -57 -62 -62 -259 -62 -159 0 -181 2
-210 20 -57 35 -63 58 -63 264 l0 184 27 33 c44 52 71 58 248 58 136 1 166 -2
202 -18z m1313 1 c19 -9 45 -32 57 -51 22 -32 23 -44 23 -210 0 -273 -8 -281
-281 -281 -166 0 -178 1 -210 23 -63 42 -70 70 -67 267 3 162 5 177 25 206 40
56 69 64 253 64 137 0 171 -3 200 -18z m-577 -740 c114 -47 215 -156 248 -269
12 -40 14 -388 14 -2233 l0 -2185 -23 -55 c-46 -113 -129 -196 -242 -242 l-55
-23 -2195 0 -2195 0 -55 23 c-113 46 -196 129 -242 242 l-23 55 -3 2169 c-2
2398 -7 2232 61 2345 36 59 102 123 160 152 97 50 -12 48 2317 46 l2175 -2 58
-23z m-4662 -5239 c52 -44 59 -74 59 -247 0 -182 -11 -222 -69 -258 -34 -22
-46 -23 -216 -23 -201 0 -217 4 -255 68 -18 29 -20 51 -20 210 0 198 6 223 63
257 29 18 51 20 219 20 l186 0 33 -27z m1300 12 c62 -32 69 -60 69 -260 0
-161 -2 -183 -20 -212 -39 -64 -54 -68 -256 -68 -169 0 -185 2 -210 21 -63 46
-69 64 -73 211 -4 177 3 235 36 274 15 17 36 35 47 39 12 5 101 9 199 9 142 1
184 -2 208 -14z m1325 -4 c55 -34 64 -69 64 -258 0 -191 -9 -222 -70 -258 -32
-18 -52 -20 -210 -20 -158 0 -178 2 -210 20 -61 36 -70 67 -70 258 0 271 6
277 280 277 163 0 189 -2 216 -19z m1339 -22 c41 -45 48 -92 44 -282 -4 -147
-10 -165 -73 -211 -24 -19 -44 -21 -185 -24 -179 -4 -224 4 -266 48 l-30 31
-3 189 c-4 211 2 234 61 271 29 18 47 19 225 17 l194 -3 33 -36z m1286 26 c62
-32 69 -60 69 -260 0 -161 -2 -183 -20 -212 -38 -64 -54 -68 -255 -68 -170 0
-182 1 -216 23 -58 36 -69 76 -69 258 0 173 7 203 59 247 l33 27 184 0 c147 0
191 -3 215 -15z"/>
<path d="M1306 5864 c-34 -11 -64 -31 -102 -68 -92 -93 -84 127 -84 -2296 0
-2423 -8 -2203 84 -2296 93 -92 -127 -84 2296 -84 2421 0 2204 -8 2294 83 94
95 86 -132 86 2296 0 2424 8 2204 -84 2297 -93 92 128 84 -2300 83 -1873 0
-2147 -2 -2190 -15z m1824 -1931 c201 -568 367 -1033 370 -1033 3 0 169 466
369 1035 l364 1035 389 0 388 0 0 -1435 0 -1435 -295 0 -295 0 0 448 c0 322 7
608 25 1022 14 316 25 590 23 608 -2 25 -102 -239 -384 -1020 l-381 -1053
-204 -3 -204 -2 -374 1037 c-206 571 -380 1048 -386 1061 -9 19 -10 12 -8 -40
32 -621 53 -1264 53 -1630 l0 -428 -295 0 -295 0 0 1435 0 1435 387 -2 387 -3
366 -1032z"/>
</g>
</svg>
